<svg xmlns="http://www.w3.org/2000/svg" version="1.1" xmlns:xlink="http://www.w3.org/1999/xlink" xmlns:svgjs="http://svgjs.dev/svgjs" width="1388" height="695"><svg width="1388" height="695" viewBox="0 0 1388 695" fill="none" xmlns="http://www.w3.org/2000/svg">
<path d="M0 8.1875H110.466L333.319 574.992H335.241L556.173 8.1875H668.56V690.452H585.951V129.373H584.029C580.187 139.869 576.345 150.366 573.463 159.908C569.621 169.45 566.739 178.992 562.897 188.534C559.054 198.076 556.173 207.619 553.291 215.252L365.018 690.452H298.739L110.466 215.252C106.624 206.664 103.742 197.122 99.9 187.58C96.0577 178.038 93.1757 169.45 90.2939 159.908C86.4516 150.366 83.5702 139.869 79.7278 129.373H77.8067V690.452H0V8.1875Z" fill="#212121"></path>
<path d="M1034.29 294.065C1034.29 347.849 1018.21 414.206 998.63 458.211C1014.71 467.291 1031.49 476.372 1048.27 484.754V231.201C1048.27 136.905 1066.45 64.2613 1093.01 0C1165.03 30.0352 1357.29 112.457 1357.29 168.337C1357.29 208.849 1253.12 282.191 1206.97 310.829H1313.24C1369.17 310.829 1387.35 350.643 1387.35 386.965C1387.35 526.663 1281.78 695 1176.21 695C1120.98 695 1022.4 630.04 927.318 578.352C883.272 634.93 819.65 688.015 762.321 688.015C718.275 688.015 698.699 657.281 698.699 610.482V372.297C698.699 336.673 708.487 318.513 740.648 318.513C780.499 318.513 876.98 389.759 988.843 452.623C998.631 426.08 1006.32 394.648 1006.32 370.9C1006.32 266.824 939.903 199.769 846.917 199.769C767.215 199.769 714.08 250.06 700.097 296.859H698.699V52.387C730.86 24.4473 783.994 3.4925 836.43 3.4925C962.275 3.4925 1034.29 110.362 1034.29 294.065ZM1058.76 231.201V310.829L1191.59 310.829C1206.97 301.749 1223.75 279.397 1223.75 263.332C1223.75 220.025 1130.77 184.402 1060.85 179.513C1059.46 195.578 1058.76 213.04 1058.76 231.201ZM1274.79 428.874L1058.76 428.874V489.643C1128.67 523.869 1200.68 549.015 1267.1 549.015C1324.43 549.015 1354.49 530.854 1354.49 488.945C1354.49 442.844 1325.13 428.874 1274.79 428.874ZM709.186 561.588C709.186 597.211 740.648 615.372 787.49 615.372C848.315 615.372 893.06 597.91 917.53 572.764C857.404 539.935 800.074 514.09 756.029 514.09C728.762 514.09 709.186 526.663 709.186 561.588Z" fill="#212121"></path>
</svg><style>@media (prefers-color-scheme: light) { :root { filter: none; } }
@media (prefers-color-scheme: dark) { :root { filter: none; } }
</style></svg>